<svg width="22" height="22" viewBox="0 0 22 22" fill="none" xmlns="http://www.w3.org/2000/svg"><path d="M7.357 18.706c.26 0 .47-.08.63-.24a.836.836 0 00.24-.62.827.827 0 00-.064-.332.94.94 0 00-.17-.263L5.17 14.507l-2.412-2.07-.176.449 3.027.136H18.08c1.14 0 1.961-.265 2.466-.796.505-.53.757-1.349.757-2.456V4c0-1.14-.253-1.962-.757-2.466-.505-.505-1.327-.757-2.466-.757h-5.469c-.267 0-.481.085-.644.254a.855.855 0 00-.244.615c0 .241.08.446.239.615.16.17.376.254.65.254h5.468c.514 0 .889.118 1.123.352.235.234.352.612.352 1.133v5.77c0 .534-.117.92-.352 1.158-.234.237-.609.356-1.123.356H5.61l-3.028.127.176.45L5.17 9.8l2.822-2.745a.854.854 0 00.234-.605.843.843 0 00-.239-.615c-.16-.163-.37-.244-.63-.244a.84.84 0 00-.625.273L.99 11.499a.862.862 0 00-.22.996c.05.11.123.215.22.312l5.742 5.635a.854.854 0 00.625.264z" fill="#000"/></svg>