<svg width="22" height="22" viewBox="0 0 22 22" fill="none" xmlns="http://www.w3.org/2000/svg">
    <path d="M11 11.5h9.5m0 0l-3-3m3 3l-3 3" stroke="#FF3B30" stroke-width="1.66"
        stroke-linecap="round" stroke-linejoin="round" />
    <path fill-rule="evenodd" clip-rule="evenodd"
        d="M14.843 20.175a9.556 9.556 0 01-3.843.781c-1.36 0-2.642-.26-3.843-.781a10.181 10.181 0 01-3.178-2.158 10.182 10.182 0 01-2.159-3.18 9.555 9.555 0 01-.78-3.842c0-1.36.26-2.641.78-3.843a10.224 10.224 0 015.327-5.337 9.555 9.555 0 013.843-.78c1.36 0 2.643.26 3.848.78a10.16 10.16 0 013.184 2.159 10.153 10.153 0 011.47 1.858c.034.055.06.111.079.168h-1.933a8.383 8.383 0 00-3.415-2.666 8.172 8.172 0 00-3.233-.64 8.172 8.172 0 00-5.869 2.422A8.381 8.381 0 003.35 7.763a8.172 8.172 0 00-.64 3.232c0 1.153.213 2.23.64 3.233a8.284 8.284 0 001.777 2.641 8.352 8.352 0 002.642 1.782 8.12 8.12 0 003.232.645 8.154 8.154 0 003.237-.645A8.57 8.57 0 0015.476 18h2.562a10.181 10.181 0 01-3.195 2.175z"
        fill="#FF3B30" />
</svg>
