<svg width="28" height="22" viewBox="0 0 28 22" fill="none" xmlns="http://www.w3.org/2000/svg">
    <path
        d="M14.35 19.748c1.315 0 2.557-.158 3.725-.474a15.918 15.918 0 003.238-1.25 16.612 16.612 0 002.66-1.713 15.72 15.72 0 002.008-1.88c.553-.629.976-1.211 1.269-1.748.293-.537.44-.972.44-1.304 0-.332-.147-.767-.44-1.304-.293-.537-.716-1.12-1.27-1.748a15.716 15.716 0 00-2.006-1.88 16.515 16.515 0 00-2.666-1.714 16.038 16.038 0 00-3.243-1.25 14.19 14.19 0 00-3.715-.473c-1.296 0-2.525.158-3.687.473a16.13 16.13 0 00-3.232 1.25 16.913 16.913 0 00-2.676 1.714 15.957 15.957 0 00-2.026 1.88c-.56.628-.988 1.211-1.285 1.748-.296.537-.444.972-.444 1.304 0 .332.148.767.444 1.304.297.537.725 1.12 1.285 1.748.56.628 1.233 1.255 2.021 1.88a16.715 16.715 0 002.67 1.713c.994.518 2.071.935 3.233 1.25 1.162.316 2.394.474 3.697.474zm0-1.543c-1.075 0-2.107-.133-3.096-.4a14.4 14.4 0 01-2.783-1.06c-.866-.44-1.65-.92-2.354-1.44a16.274 16.274 0 01-1.821-1.548c-.511-.511-.903-.978-1.177-1.402-.273-.423-.41-.748-.41-.976 0-.195.137-.495.41-.899.274-.403.666-.864 1.177-1.381A16.314 16.314 0 016.117 7.53a17.157 17.157 0 012.354-1.47 14.31 14.31 0 012.783-1.093 11.43 11.43 0 013.096-.415c1.067 0 2.094.138 3.08.415.987.276 1.913.641 2.779 1.094a17.42 17.42 0 012.358 1.47c.707.527 1.314 1.05 1.822 1.567.508.517.9.978 1.176 1.381.277.404.415.704.415.899 0 .228-.138.553-.415.976-.276.424-.669.89-1.176 1.402a15.704 15.704 0 01-1.822 1.548c-.706.52-1.492 1-2.358 1.44a14.47 14.47 0 01-2.778 1.06c-.987.267-2.014.4-3.081.4zm0-1.357c.755 0 1.464-.143 2.129-.43a5.569 5.569 0 002.925-2.935c.282-.66.424-1.362.424-2.104 0-.762-.142-1.475-.425-2.139a5.44 5.44 0 00-2.924-2.91 5.424 5.424 0 00-2.13-.42 5.474 5.474 0 00-3.896 1.587A5.44 5.44 0 009.276 9.24a5.394 5.394 0 00-.424 2.139 5.38 5.38 0 00.434 2.104 5.569 5.569 0 002.92 2.935 5.33 5.33 0 002.144.43zm0-3.653a1.77 1.77 0 01-1.3-.537 1.747 1.747 0 01-.536-1.28c0-.5.179-.928.537-1.283a1.778 1.778 0 011.299-.533c.5 0 .93.178 1.289.533.358.354.537.783.537 1.284 0 .495-.18.921-.537 1.28a1.758 1.758 0 01-1.29.536z"
        fill="#000" />
</svg>
