<svg width="22" height="22" viewBox="0 0 22 22" fill="none" xmlns="http://www.w3.org/2000/svg"><mask id="a" fill="#fff"><path fill-rule="evenodd" clip-rule="evenodd" d="M4 1.5h14A2.5 2.5 0 0120.5 4v8H16a4 4 0 00-4 4v4.5H4A2.5 2.5 0 011.5 18V4A2.5 2.5 0 014 1.5zM12 22H4a4 4 0 01-4-4V4a4 4 0 014-4h14a4 4 0 014 4v14a4 4 0 01-4 4h-6z"/></mask><path fill-rule="evenodd" clip-rule="evenodd" d="M4 1.5h14A2.5 2.5 0 0120.5 4v8H16a4 4 0 00-4 4v4.5H4A2.5 2.5 0 011.5 18V4A2.5 2.5 0 014 1.5zM12 22H4a4 4 0 01-4-4V4a4 4 0 014-4h14a4 4 0 014 4v14a4 4 0 01-4 4h-6z" fill="#007AFF"/><path d="M20.5 12v1h1v-1h-1zM12 20.5v1h1v-1h-1zm6-20H4v2h14v-2zM21.5 4A3.5 3.5 0 0018 .5v2A1.5 1.5 0 0119.5 4h2zm0 8V4h-2v8h2zM16 13h4.5v-2H16v2zm-3 3a3 3 0 013-3v-2a5 5 0 00-5 5h2zm0 4.5V16h-2v4.5h2zm-9 1h8v-2H4v2zM.5 18A3.5 3.5 0 004 21.5v-2A1.5 1.5 0 012.5 18h-2zm0-14v14h2V4h-2zM4 .5A3.5 3.5 0 00.5 4h2A1.5 1.5 0 014 2.5v-2zM4 23h8v-2H4v2zm-5-5a5 5 0 005 5v-2a3 3 0 01-3-3h-2zm0-14v14h2V4h-2zm5-5a5 5 0 00-5 5h2a3 3 0 013-3v-2zm14 0H4v2h14v-2zm5 5a5 5 0 00-5-5v2a3 3 0 013 3h2zm0 8V4h-2v8h2zm-2 0v6h2v-6h-2zm-3 11a5 5 0 005-5h-2a3 3 0 01-3 3v2zm0-2h-6v2h6v-2z" fill="#007AFF" mask="url(#a)"/></svg>