<svg width="22" height="22" viewBox="0 0 22 22" fill="none" xmlns="http://www.w3.org/2000/svg"><path d="M17.919 11.197l-7.178 7.178c-.625.625-1.297 1.03-2.017 1.215a3.903 3.903 0 01-2.119-.029 4.256 4.256 0 01-1.84-1.118 4.3 4.3 0 01-1.109-1.836 3.884 3.884 0 01-.03-2.114c.186-.72.588-1.392 1.207-2.017l9.795-9.785a3.066 3.066 0 011.25-.791 2.69 2.69 0 011.377-.088c.456.091.862.313 1.22.664.359.365.583.773.674 1.226.091.452.06.91-.093 1.372a3.16 3.16 0 01-.786 1.25l-9.57 9.57c-.24.247-.491.353-.752.317a1.123 1.123 0 01-.644-.297A1.07 1.07 0 017 15.269c-.033-.26.071-.514.312-.762l6.69-6.67c.143-.15.22-.32.23-.512a.64.64 0 00-.2-.503.67.67 0 00-.504-.196.71.71 0 00-.503.235L6.317 13.57a2.433 2.433 0 00-.659 1.123c-.107.417-.11.827-.01 1.23.101.404.298.752.591 1.045a2.297 2.297 0 002.3.606 2.561 2.561 0 001.108-.674l9.61-9.61c.612-.611 1.015-1.266 1.21-1.962.196-.697.203-1.38.02-2.051-.182-.67-.54-1.273-1.074-1.807A3.983 3.983 0 0017.631.42a3.869 3.869 0 00-2.066.005c-.703.19-1.36.59-1.972 1.201L3.749 11.48c-.606.605-1.052 1.26-1.338 1.963a5.375 5.375 0 00-.41 2.143 5.643 5.643 0 001.7 3.93c.54.541 1.148.957 1.825 1.246a5.437 5.437 0 004.248.034c.703-.286 1.358-.729 1.963-1.328l7.227-7.226a.728.728 0 00.215-.537.682.682 0 00-.225-.528.586.586 0 00-.513-.21.829.829 0 00-.522.23z" fill="#007AFF"/></svg>