<svg width="22" height="22" viewBox="0 0 22 22" fill="none" xmlns="http://www.w3.org/2000/svg">
    <mask id="a" fill="#fff">
        <path fill-rule="evenodd" clip-rule="evenodd"
            d="M20.5 11a9.5 9.5 0 11-19 0 9.5 9.5 0 0119 0zm1.5 0c0 6.075-4.925 11-11 11S0 17.075 0 11 4.925 0 11 0s11 4.925 11 11zm-11 3a3 3 0 100-6 3 3 0 000 6z" />
    </mask>
    <path fill-rule="evenodd" clip-rule="evenodd"
        d="M20.5 11a9.5 9.5 0 11-19 0 9.5 9.5 0 0119 0zm1.5 0c0 6.075-4.925 11-11 11S0 17.075 0 11 4.925 0 11 0s11 4.925 11 11zm-11 3a3 3 0 100-6 3 3 0 000 6z"
        fill="#007AFF" />
    <path
        d="M11 21.5c5.799 0 10.5-4.701 10.5-10.5h-2a8.5 8.5 0 01-8.5 8.5v2zM.5 11c0 5.799 4.701 10.5 10.5 10.5v-2A8.5 8.5 0 012.5 11h-2zM11 .5C5.201.5.5 5.201.5 11h2A8.5 8.5 0 0111 2.5v-2zM21.5 11C21.5 5.201 16.799.5 11 .5v2a8.5 8.5 0 018.5 8.5h2zM11 23c6.627 0 12-5.373 12-12h-2c0 5.523-4.477 10-10 10v2zM-1 11c0 6.627 5.373 12 12 12v-2C5.477 21 1 16.523 1 11h-2zM11-1C4.373-1-1 4.373-1 11h2C1 5.477 5.477 1 11 1v-2zm12 12c0-6.627-5.373-12-12-12v2c5.523 0 10 4.477 10 10h2zm-10 0a2 2 0 01-2 2v2a4 4 0 004-4h-2zm-2-2a2 2 0 012 2h2a4 4 0 00-4-4v2zm-2 2a2 2 0 012-2V7a4 4 0 00-4 4h2zm2 2a2 2 0 01-2-2H7a4 4 0 004 4v-2z"
        fill="#007AFF" mask="url(#a)" />
</svg>
