<svg width="22" height="22" viewBox="0 0 22 22" fill="none" xmlns="http://www.w3.org/2000/svg"><path d="M12.997 21.796c.352 0 .654-.14.908-.42.254-.28.472-.654.655-1.123l6.396-16.71a6.03 6.03 0 00.2-.634c.05-.195.074-.377.074-.547 0-.319-.092-.57-.274-.752-.182-.182-.433-.273-.752-.273a2.28 2.28 0 00-.542.073 5.894 5.894 0 00-.64.2L2.227 8.046c-.41.156-.756.361-1.036.615s-.42.557-.42.908c0 .45.154.773.46.972.305.199.693.37 1.162.513l7.05 2.07 2.051 6.963c.143.488.316.895.518 1.22.202.326.53.489.986.489zM9.882 11.64L3.144 9.58a.4.4 0 01-.162-.07.116.116 0 01-.044-.087c0-.033.013-.064.04-.093a.368.368 0 01.146-.083l13.203-5c.39-.15.773-.314 1.148-.493.374-.18.743-.353 1.108-.523-.325.26-.67.54-1.035.84-.365.3-.68.583-.947.85L9.88 11.64zm3.271 8.008a.105.105 0 01-.093-.054.83.83 0 01-.073-.171l-2.06-6.738 6.718-6.72c.267-.266.552-.585.855-.956.303-.371.584-.723.845-1.055-.17.371-.345.746-.528 1.123-.182.378-.348.765-.498 1.162l-5 13.203a.569.569 0 01-.078.157c-.026.032-.055.049-.088.049z" fill="#fff"/></svg>