<svg width="22" height="22" viewBox="0 0 22 22" fill="none" xmlns="http://www.w3.org/2000/svg"><mask id="a" fill="#fff"><path fill-rule="evenodd" clip-rule="evenodd" d="M4 1.5h14A2.5 2.5 0 0120.5 4v10l-5.98-1.595A11.998 11.998 0 0011.427 12h-.856c-1.043 0-2.083.136-3.091.405L1.5 14V4A2.5 2.5 0 014 1.5zM0 4a4 4 0 014-4h14a4 4 0 014 4v14a4 4 0 01-4 4H4a4 4 0 01-4-4V4zm8 2a2 2 0 11-4 0 2 2 0 014 0z"/></mask><path fill-rule="evenodd" clip-rule="evenodd" d="M4 1.5h14A2.5 2.5 0 0120.5 4v10l-5.98-1.595A11.998 11.998 0 0011.427 12h-.856c-1.043 0-2.083.136-3.091.405L1.5 14V4A2.5 2.5 0 014 1.5zM0 4a4 4 0 014-4h14a4 4 0 014 4v14a4 4 0 01-4 4H4a4 4 0 01-4-4V4zm8 2a2 2 0 11-4 0 2 2 0 014 0z" fill="#007AFF"/><path d="M20.5 14l-.258.966 1.258.336V14h-1zm-5.98-1.595l.257-.966-.258.966zm-7.04 0l.258.966-.257-.966zM1.5 14h-1v1.302l1.258-.336L1.5 14zM18 .5H4v2h14v-2zM21.5 4A3.5 3.5 0 0018 .5v2A1.5 1.5 0 0119.5 4h2zm0 10V4h-2v10h2zm-7.238-.629l5.98 1.595.516-1.932-5.98-1.595-.516 1.932zM11.427 13c.957 0 1.91.125 2.835.371l.515-1.932a13.003 13.003 0 00-3.35-.439v2zm-.854 0h.854v-2h-.854v2zm-2.835.371A11.002 11.002 0 0110.572 13v-2c-1.13 0-2.256.148-3.35.439l.516 1.932zm-5.98 1.595l5.98-1.595-.515-1.932-5.98 1.595.515 1.932zM.5 4v10h2V4h-2zM4 .5A3.5 3.5 0 00.5 4h2A1.5 1.5 0 014 2.5v-2zM4-1a5 5 0 00-5 5h2a3 3 0 013-3v-2zm14 0H4v2h14v-2zm5 5a5 5 0 00-5-5v2a3 3 0 013 3h2zm0 14V4h-2v14h2zm-5 5a5 5 0 005-5h-2a3 3 0 01-3 3v2zM4 23h14v-2H4v2zm-5-5a5 5 0 005 5v-2a3 3 0 01-3-3h-2zm0-14v14h2V4h-2zm7 5a3 3 0 003-3H7a1 1 0 01-1 1v2zM3 6a3 3 0 003 3V7a1 1 0 01-1-1H3zm3-3a3 3 0 00-3 3h2a1 1 0 011-1V3zm3 3a3 3 0 00-3-3v2a1 1 0 011 1h2z" fill="#007AFF" mask="url(#a)"/></svg>