<svg width="22" height="22" viewBox="0 0 22 22" fill="none" xmlns="http://www.w3.org/2000/svg"><path d="M3.013 9.46c0 .898.17 1.742.507 2.53a6.585 6.585 0 001.406 2.08 6.59 6.59 0 002.08 1.406 6.35 6.35 0 002.53.506 6.27 6.27 0 002.028-.326 6.743 6.743 0 001.766-.9l4.022 4.03a1 1 0 00.695.279.939.939 0 00.49-.127.883.883 0 00.331-.348 1.02 1.02 0 00.119-.49.972.972 0 00-.07-.368.902.902 0 00-.2-.302l-3.997-4.022c.42-.545.747-1.153.984-1.823.238-.67.356-1.38.356-2.126 0-.9-.169-1.742-.507-2.53a6.589 6.589 0 00-1.406-2.08 6.588 6.588 0 00-2.08-1.407 6.348 6.348 0 00-2.53-.506c-.9 0-1.743.169-2.53.506a6.587 6.587 0 00-2.08 1.407 6.581 6.581 0 00-1.407 2.08 6.348 6.348 0 00-.507 2.53zm1.398 0c0-.71.132-1.373.397-1.991A5.155 5.155 0 015.91 5.834 5.154 5.154 0 017.546 4.73a5.012 5.012 0 011.99-.396c.71 0 1.373.132 1.991.396a5.107 5.107 0 011.631 1.104 5.245 5.245 0 011.104 1.635c.267.618.4 1.282.4 1.99 0 .709-.133 1.372-.4 1.99a5.194 5.194 0 01-2.735 2.735c-.618.267-1.282.4-1.99.4a4.968 4.968 0 01-1.99-.4A5.245 5.245 0 015.91 13.08a5.105 5.105 0 01-1.103-1.63 5.011 5.011 0 01-.397-1.99z" fill="#8A8A8E"/></svg>