<svg width="22" height="22" viewBox="0 0 22 22" fill="none" xmlns="http://www.w3.org/2000/svg">
    <path
        d="M12.7 12.182a3.045 3.045 0 01-1.7.473 3.146 3.146 0 01-1.694-.493 3.468 3.468 0 01-1.202-1.313c-.296-.554-.447-1.179-.454-1.875-.006-.658.14-1.26.44-1.807A3.59 3.59 0 019.3 5.854 3.06 3.06 0 0111 5.36c.625 0 1.19.165 1.694.494A3.59 3.59 0 0113.9 7.167c.3.547.45 1.15.45 1.807 0 .696-.149 1.325-.445 1.884a3.435 3.435 0 01-1.206 1.324z"
        fill="#007AFF" />
    <path fill-rule="evenodd" clip-rule="evenodd"
        d="M14.843 20.175a9.556 9.556 0 01-3.843.781c-1.36 0-2.642-.26-3.843-.781a10.181 10.181 0 01-3.178-2.158 10.182 10.182 0 01-2.159-3.18 9.555 9.555 0 01-.78-3.842c0-1.36.26-2.641.78-3.843a10.224 10.224 0 015.327-5.337 9.555 9.555 0 013.843-.78c1.36 0 2.643.26 3.848.78a10.16 10.16 0 013.184 2.159 10.181 10.181 0 012.158 3.178 9.555 9.555 0 01.781 3.843c0 1.36-.26 2.642-.781 3.843a10.181 10.181 0 01-2.159 3.179 10.181 10.181 0 01-3.178 2.158zm-12.134-9.18c0 1.153.213 2.23.64 3.233a7.754 7.754 0 001.486 2.285c.178-.203.397-.405.657-.606.6-.462 1.369-.843 2.31-1.142.94-.3 2.007-.45 3.198-.45 1.198 0 2.267.15 3.208.45.94.3 1.709.68 2.305 1.142.265.206.487.413.666.623a7.934 7.934 0 001.482-2.302c.427-1.003.64-2.08.64-3.233a8.12 8.12 0 00-.645-3.232 8.369 8.369 0 00-4.433-4.429 8.172 8.172 0 00-3.233-.64 8.172 8.172 0 00-5.869 2.422A8.381 8.381 0 003.35 7.763a8.172 8.172 0 00-.64 3.232z"
        fill="#007AFF" />
</svg>
